<?xml version="1.0" encoding="UTF-8"?>
<svg version="1.1" xmlns="http://www.w3.org/2000/svg" width="1024" height="1024">
<path d="M0 0 C337.92 0 675.84 0 1024 0 C1024 337.92 1024 675.84 1024 1024 C686.08 1024 348.16 1024 0 1024 C0 686.08 0 348.16 0 0 Z " fill="#F9F9F7" transform="translate(0,0)"/>
<path d="M0 0 C1.85839508 -0.00856522 1.85839508 -0.00856522 3.7543335 -0.01730347 C5.14050283 -0.01854906 6.52667228 -0.0196741 7.9128418 -0.02069092 C9.36322151 -0.02531731 10.81359999 -0.03034172 12.26397705 -0.03573608 C16.21947811 -0.04889561 20.17496217 -0.0553141 24.13048172 -0.05974674 C26.60691811 -0.06267702 29.08334987 -0.06678216 31.55978394 -0.07125092 C39.32164266 -0.08494673 47.08349078 -0.09459825 54.84536076 -0.09845281 C63.77650782 -0.10291277 72.70750025 -0.12035515 81.63860035 -0.1494534 C88.55433106 -0.17119345 95.47001873 -0.18116391 102.3857832 -0.18249393 C106.50835801 -0.18353492 110.6307879 -0.189288 114.75332642 -0.20731354 C147.83978108 -0.34379069 147.83978108 -0.34379069 161.29956055 3.14044189 C162.17221558 3.3641597 163.04487061 3.5878775 163.94396973 3.81837463 C165.91731769 4.37541224 167.86225359 5.03120176 169.79956055 5.70294189 C171.02674805 6.11673096 172.25393555 6.53052002 173.51831055 6.95684814 C176.29956055 8.14044189 176.29956055 8.14044189 177.29956055 10.14044189 C177.12706766 14.15785691 176.68296572 18.13598791 176.29956055 22.14044189 C180.91956055 22.14044189 185.53956055 22.14044189 190.29956055 22.14044189 C190.29956055 20.16044189 190.29956055 18.18044189 190.29956055 16.14044189 C194.76951064 17.38786983 198.1658859 18.63809964 201.29956055 22.14044189 C201.72339796 24.94098782 201.53759701 27.28400438 201.29956055 30.14044189 C204.92956055 30.14044189 208.55956055 30.14044189 212.29956055 30.14044189 C212.29956055 33.11044189 212.29956055 36.08044189 212.29956055 39.14044189 C212.99823242 39.11723877 213.6969043 39.09403564 214.41674805 39.07012939 C215.32682617 39.05208252 216.2369043 39.03403564 217.17456055 39.01544189 C218.53194336 38.98063721 218.53194336 38.98063721 219.91674805 38.94512939 C222.29956055 39.14044189 222.29956055 39.14044189 224.29956055 41.14044189 C224.57196727 44.15870842 224.3863118 47.10414811 224.29956055 50.14044189 C227.59956055 50.14044189 230.89956055 50.14044189 234.29956055 50.14044189 C234.29956055 53.77044189 234.29956055 57.40044189 234.29956055 61.14044189 C231.65956055 61.14044189 229.01956055 61.14044189 226.29956055 61.14044189 C226.62956055 64.11044189 226.95956055 67.08044189 227.29956055 70.14044189 C230.26956055 70.47044189 233.23956055 70.80044189 236.29956055 71.14044189 C236.29956055 67.84044189 236.29956055 64.54044189 236.29956055 61.14044189 C238.27956055 61.14044189 240.25956055 61.14044189 242.29956055 61.14044189 C242.29956055 64.44044189 242.29956055 67.74044189 242.29956055 71.14044189 C243.59893555 71.11981689 244.89831055 71.09919189 246.23706055 71.07794189 C247.59121688 71.05644735 248.94712137 71.06895991 250.29956055 71.14044189 C251.29956055 72.14044189 251.29956055 72.14044189 251.3972168 75.08184814 C251.37981445 76.87428955 251.37981445 76.87428955 251.36206055 78.70294189 C251.35303711 79.90048096 251.34401367 81.09802002 251.3347168 82.33184814 C251.31731445 83.72210205 251.31731445 83.72210205 251.29956055 85.14044189 C252.94956055 85.14044189 254.59956055 85.14044189 256.29956055 85.14044189 C258.16496682 89.84450988 259.66799059 94.08788226 260.29956055 99.14044189 C258.64956055 99.14044189 256.99956055 99.14044189 255.29956055 99.14044189 C255.62956055 101.78044189 255.95956055 104.42044189 256.29956055 107.14044189 C258.60956055 107.47044189 260.91956055 107.80044189 263.29956055 108.14044189 C263.62956055 111.11044189 263.95956055 114.08044189 264.29956055 117.14044189 C262.64956055 117.47044189 260.99956055 117.80044189 259.29956055 118.14044189 C259.29956055 120.78044189 259.29956055 123.42044189 259.29956055 126.14044189 C261.60956055 126.47044189 263.91956055 126.80044189 266.29956055 127.14044189 C272.12114537 165.0044082 263.66656477 207.87829962 241.61206055 239.45294189 C240.19369842 241.36313538 238.7579735 243.26064884 237.29956055 245.14044189 C236.72592773 245.93321533 236.15229492 246.72598877 235.5612793 247.54278564 C215.36286397 274.45907746 187.84038612 291.7087874 155.29956055 299.39044189 C154.62465576 299.5539917 153.94975098 299.7175415 153.25439453 299.88604736 C141.47405138 302.47747395 129.03788997 302.28965921 117.03637695 302.26983643 C115.68604994 302.27119651 114.3357233 302.27297981 112.98539734 302.27514648 C109.3726878 302.27964258 105.76000732 302.27796571 102.14729738 302.2747674 C98.35083223 302.27221013 94.55436932 302.27458994 90.75790405 302.27615356 C84.40199339 302.27796241 78.04609443 302.27559963 71.69018555 302.27081299 C64.33777714 302.26533994 56.98539634 302.26716006 49.63298857 302.27263939 C43.30235959 302.27716822 36.97173894 302.2778232 30.64110887 302.27520072 C26.86695233 302.27364088 23.09280881 302.27343688 19.31865311 302.27673721 C15.12949208 302.28014645 10.94037937 302.27543026 6.7512207 302.26983643 C4.87038536 302.27287277 4.87038536 302.27287277 2.95155334 302.27597046 C1.81911697 302.27315063 0.6866806 302.27033081 -0.48007202 302.26742554 C-1.96489358 302.26686 -1.96489358 302.26686 -3.47971153 302.26628304 C-5.70043945 302.14044189 -5.70043945 302.14044189 -6.70043945 301.14044189 C-6.80000223 298.96781509 -6.82843664 296.79191083 -6.82983398 294.61700439 C-6.8315863 293.93571472 -6.83333862 293.25442505 -6.83514404 292.55249023 C-6.83956188 290.29011522 -6.83662483 288.02781776 -6.83325195 285.76544189 C-6.83392501 284.19984929 -6.83489505 282.63425679 -6.83615112 281.06866455 C-6.837628 277.78333545 -6.83547386 274.49803348 -6.83081055 271.21270752 C-6.82511326 266.99223673 -6.82839232 262.77182953 -6.83438301 258.55136108 C-6.8379889 255.31727617 -6.83684991 252.08320645 -6.83425522 248.84912109 C-6.83358603 247.29252108 -6.83441411 245.73591971 -6.83673477 244.17932129 C-6.83926175 242.00746994 -6.8354201 239.83572293 -6.82983398 237.66387939 C-6.82903839 236.42557373 -6.8282428 235.18726807 -6.8274231 233.91143799 C-6.70043945 231.14044189 -6.70043945 231.14044189 -5.70043945 230.14044189 C-4.20173897 230.04213043 -2.69845407 230.01245733 -1.1965332 230.01104736 C0.2400061 230.00631912 0.2400061 230.00631912 1.70556641 230.00149536 C2.74720947 230.00351959 3.78885254 230.00554382 4.86206055 230.00762939 C5.92368408 230.00667267 6.98530762 230.00571594 8.07910156 230.00473022 C10.32869526 230.00404825 12.57829092 230.00590371 14.82788086 230.0100708 C18.28463126 230.0154188 21.74125172 230.01012635 25.19799805 230.00372314 C27.37768584 230.00438392 29.55737354 230.00566508 31.73706055 230.00762939 C33.29952515 230.00459305 33.29952515 230.00459305 34.89355469 230.00149536 C35.85124756 230.00464752 36.80894043 230.00779968 37.7956543 230.01104736 C38.64313232 230.01184296 39.49061035 230.01263855 40.36376953 230.01345825 C42.29956055 230.14044189 42.29956055 230.14044189 43.29956055 231.14044189 C43.38625487 232.62916049 43.40659548 234.12188689 43.3972168 235.61309814 C43.39399414 236.51221924 43.39077148 237.41134033 43.38745117 238.33770752 C43.37488281 239.75599854 43.37488281 239.75599854 43.36206055 241.20294189 C43.35754883 242.15233643 43.35303711 243.10173096 43.34838867 244.07989502 C43.33656165 246.43347255 43.3200808 248.78692667 43.29956055 251.14044189 C54.85380371 251.10215164 66.40772871 251.04245568 77.96172142 250.95653915 C83.32857742 250.91727965 88.69527461 250.88498676 94.06225586 250.8694458 C99.25611767 250.85413595 104.44954222 250.81944193 109.64320755 250.77213287 C111.60996289 250.75746516 113.5767807 250.74940943 115.54359055 250.74855804 C140.19604307 250.72718376 162.99586339 245.75278127 181.29956055 228.14044189 C202.33608378 206.33075394 210.9212918 176.09994363 210.64892578 146.3394165 C210.00284951 121.39211216 202.81164213 96.21695756 184.98706055 78.03106689 C183.29956055 76.14044189 183.29956055 76.14044189 183.29956055 74.14044189 C182.70916992 73.87489502 182.1187793 73.60934814 181.51049805 73.33575439 C179.24240002 72.10953885 177.76603957 70.80692601 175.92456055 69.01544189 C157.21601973 52.38948447 132.36767289 49.63126941 108.36206055 49.84747314 C106.50163113 49.85308509 104.6411972 49.8573476 102.78076172 49.8603363 C97.9409509 49.87165944 93.10142057 49.9010149 88.26171875 49.93444824 C83.30041292 49.96542318 78.3390607 49.97889957 73.37768555 49.99395752 C63.68483566 50.0258998 53.99226557 50.07856141 44.29956055 50.14044189 C43.96956055 56.08044189 43.63956055 62.02044189 43.29956055 68.14044189 C26.79956055 68.14044189 10.29956055 68.14044189 -6.70043945 68.14044189 C-6.74054826 51.45963375 -6.74054826 51.45963375 -6.74926758 44.37286377 C-6.75525541 39.52902131 -6.76235411 34.68519767 -6.77587891 29.84136963 C-6.78670988 25.93808218 -6.79271673 22.03481491 -6.7953167 18.1315136 C-6.79717057 16.63910542 -6.80079046 15.14669841 -6.80616951 13.65429878 C-6.81338276 11.5709605 -6.81443028 9.48770658 -6.81396484 7.40435791 C-6.81618546 6.21633072 -6.81840607 5.02830353 -6.82069397 3.80427551 C-6.60325981 -1.01224574 -4.27493905 0.0117403 0 0 Z " fill="#016BE5" transform="translate(143.700439453125,352.85955810546875)"/>
<path d="M0 0 C5.05312206 3.64321077 7.84021954 8.43186261 9.75 14.26171875 C10.48181255 20.74348706 9.31072354 25.74802219 5.75 31.26171875 C1.73977079 35.57856508 -1.84800981 38.90891977 -7.88671875 39.53515625 C-14.99128148 39.77167178 -19.92136923 39.18926979 -25.25 34.26171875 C-26.09546387 32.74964844 -26.09546387 32.74964844 -26.95800781 31.20703125 C-28.95962554 28.81225679 -30.06483221 28.29772212 -33.17420959 27.69314575 C-37.03468174 27.46890041 -40.87364636 27.42972364 -44.73828125 27.45703125 C-46.16605364 27.44577568 -47.59380753 27.43189265 -49.02153015 27.41549683 C-52.76834506 27.379498 -56.5143434 27.37907994 -60.2612915 27.38616943 C-64.76274098 27.38724396 -69.26395784 27.34395468 -73.7652359 27.30813599 C-80.59391343 27.25874712 -87.42046171 27.26557834 -94.25 27.26171875 C-94.25 39.47171875 -94.25 51.68171875 -94.25 64.26171875 C-81.29683738 64.11135479 -81.29683738 64.11135479 -68.34375 63.95507812 C-63.03289723 63.88970455 -57.7220436 63.82490755 -52.41113281 63.7644043 C-43.09132413 63.65746533 -33.77236327 63.53102861 -24.45336533 63.36728859 C-19.77550545 63.28893083 -15.09992993 63.25061197 -10.42143059 63.25259113 C-8.29885535 63.24959045 -6.17702493 63.23160103 -4.05459595 63.20726013 C-1.49971489 63.17934111 1.05561838 63.17651078 3.61050415 63.20399475 C9.58354113 63.23821618 9.58354113 63.23821618 14.78009033 60.71170044 C16.2710969 58.96474614 17.48548241 57.17341936 18.75 55.26171875 C24.11291952 51.30337339 30.34299539 51.36928447 36.75 52.26171875 C42.40420725 54.43427129 46.39022114 58.32086749 49.75 63.26171875 C52.16464993 68.96907313 52.29116014 74.31465372 50.75 80.26171875 C47.3941541 87.46890458 43.16261811 91.16651174 35.8125 94.01171875 C28.68544143 94.87560464 23.7119939 94.43130084 17.75 90.26171875 C15.7428454 88.35662285 14.34756631 86.55822032 12.75 84.26171875 C12.75 83.60171875 12.75 82.94171875 12.75 82.26171875 C-22.56 82.26171875 -57.87 82.26171875 -94.25 82.26171875 C-94.25 94.14171875 -94.25 106.02171875 -94.25 118.26171875 C-83.04547511 118.31637331 -83.04547511 118.31637331 -71.84179688 118.296875 C-67.26809174 118.27248307 -62.69550715 118.25655605 -58.12182617 118.29248047 C-54.43179545 118.3209166 -50.74372056 118.31018496 -47.05378914 118.2729187 C-45.65007992 118.26550359 -44.24622365 118.27192155 -42.84264946 118.29275513 C-34.89389389 118.58895527 -34.89389389 118.58895527 -27.87493896 115.4834137 C-26.13758425 113.49067904 -24.70674464 111.46183946 -23.25 109.26171875 C-17.78341761 105.01460474 -11.88786675 105.53967638 -5.25 106.26171875 C0.39204317 107.95131457 4.53606154 112.47563702 7.75 117.26171875 C10.52645767 123.06100917 10.86922007 129.34779947 9.09765625 135.54296875 C6.35599983 141.66168694 1.87722238 145.76609066 -4.125 148.63671875 C-10.88080634 149.98788002 -16.11279362 149.83032194 -22.328125 146.72265625 C-24.25 145.26171875 -24.25 145.26171875 -26.30107117 142.21871948 C-27.879007 140.31589442 -28.79866236 139.39290284 -31.18946266 138.69800186 C-33.59489298 138.48320974 -35.93982613 138.454116 -38.35473633 138.48876953 C-39.26254852 138.4781398 -40.17036072 138.46751007 -41.10568237 138.45655823 C-44.09836307 138.42851276 -47.08927932 138.442565 -50.08203125 138.45703125 C-52.15998373 138.44578114 -54.23792349 138.43190052 -56.31584167 138.41549683 C-61.77891359 138.37943294 -67.24142617 138.37908866 -72.70458984 138.38616943 C-78.28167755 138.38708178 -83.85855501 138.35423174 -89.43554688 138.32421875 C-100.37375649 138.27033209 -111.31167233 138.25417768 -122.25 138.26171875 C-122.27332875 121.45948054 -122.29097906 104.65724736 -122.30181217 87.85499668 C-122.30697518 80.05396039 -122.31401797 72.25293414 -122.32543945 64.4519043 C-122.33538615 57.65495562 -122.34185339 50.85801421 -122.34408849 44.06105846 C-122.34539563 40.45993744 -122.34848164 36.85883723 -122.35573006 33.25772285 C-122.36374364 29.24415273 -122.36399115 25.23061911 -122.36352539 21.21704102 C-122.36712067 20.01439102 -122.37071594 18.81174103 -122.37442017 17.57264709 C-122.3730455 16.48584656 -122.37167084 15.39904602 -122.37025452 14.27931213 C-122.37117631 13.32894357 -122.3720981 12.378575 -122.37304783 11.39940739 C-122.25 9.26171875 -122.25 9.26171875 -121.25 8.26171875 C-118.38908182 8.16649457 -115.55236379 8.13618549 -112.69116211 8.14819336 C-111.79368759 8.14804733 -110.89621307 8.14790131 -109.97154236 8.14775085 C-106.99011866 8.14845033 -104.0087566 8.15624434 -101.02734375 8.1640625 C-98.96611058 8.16592656 -96.90487696 8.16735052 -94.84364319 8.16835022 C-89.4069599 8.17217638 -83.97030314 8.18200749 -78.53363037 8.1930542 C-72.99052286 8.20326622 -67.44741108 8.20784739 -61.90429688 8.21289062 C-51.01951957 8.22362967 -40.13476198 8.24070726 -29.25 8.26171875 C-28.97800781 7.65585937 -28.70601563 7.05 -28.42578125 6.42578125 C-26.30739408 2.5268228 -22.77653948 0.15220011 -19 -2.05078125 C-12.26794071 -3.73379607 -6.07509934 -3.49073249 0 0 Z " fill="#0169E4" transform="translate(259.25,428.73828125)"/>
<path d="M0 0 C6.00897944 5.00419927 10.80553797 11.14716356 11.65405273 19.22045898 C12.19371518 31.43477512 12.17148296 41.38717613 3.8046875 51.1484375 C-3.02159854 57.62383967 -12.10947414 60.57036908 -21.38671875 60.37890625 C-30.95083909 59.74129823 -38.12311016 55.98373201 -44.8671875 49.171875 C-50.54874081 41.98684658 -52.30744762 32.10452909 -51.9296875 23.14453125 C-50.60953306 12.89958269 -45.91949084 5.21306561 -37.796875 -1.140625 C-26.37035135 -8.36856554 -10.93106448 -7.55480298 0 0 Z " fill="#162A44" transform="translate(734.5546875,476.765625)"/>
<path d="M0 0 C37.86227735 0 37.86227735 0 46.5 8.16015625 C52.89092992 15.99903123 54.92651758 25.10371804 54 35 C52.2058837 44.42768121 49.14149856 50.56259284 42 57 C31 62 31 62 0 62 C0 41.54 0 21.08 0 0 Z " fill="#152943" transform="translate(457,473)"/>
<path d="M0 0 C35.47884187 0 35.47884187 0 41.05859375 4.75390625 C41.74115234 5.64916016 41.74115234 5.64916016 42.4375 6.5625 C42.91058594 7.16191406 43.38367188 7.76132812 43.87109375 8.37890625 C46.38761924 11.99260203 46.19850569 14.8729833 46.25 19.25 C46.27578125 20.55453125 46.3015625 21.8590625 46.328125 23.203125 C45.92087194 27.91562471 44.6693607 31.17347302 41.46484375 34.6796875 C37.22222222 38 37.22222222 38 35 38 C38.74955604 44.97719585 42.63522621 51.85325972 46.6796875 58.6640625 C48 61 48 61 48 62 C43.28881903 63.25445647 38.5109783 64.24040615 34 62 C30.71676369 58.19469094 28.52408028 53.74821088 26.43652344 49.20214844 C25.99856445 48.30141602 25.56060547 47.40068359 25.109375 46.47265625 C24.74811523 45.64000244 24.38685547 44.80734863 24.01464844 43.94946289 C21.26121687 40.88173621 21.26121687 40.88173621 12 41 C12 47.93 12 54.86 12 62 C8.04 62 4.08 62 0 62 C0 41.54 0 21.08 0 0 Z " fill="#152842" transform="translate(756,473)"/>
<path d="M0 0 C13 0 13 0 16.86254883 3.58007812 C17.94070598 5.20037024 18.9705346 6.8535749 19.95703125 8.53125 C20.5157341 9.39689575 21.07443695 10.2625415 21.65007019 11.15441895 C23.41528228 13.91093539 25.11329758 16.70241811 26.8125 19.5 C28.001641 21.38157885 29.19496132 23.26052332 30.39257812 25.13671875 C33.32003925 29.72571186 36.15311703 34.35654039 39 39 C39.33 26.13 39.66 13.26 40 0 C43.96 0 47.92 0 52 0 C52 20.46 52 40.92 52 62 C40 62 40 62 36.2668457 58.45166016 C35.19341184 56.84203795 34.16477409 55.20190256 33.17578125 53.5390625 C32.61803513 52.6781601 32.060289 51.81725769 31.48564148 50.93026733 C29.72048487 48.18544173 28.0170649 45.4077666 26.3125 42.625 C25.12690694 40.76056061 23.93748986 38.89854704 22.74414062 37.0390625 C14.79345759 24.58691518 14.79345759 24.58691518 13 21 C12.67 34.53 12.34 48.06 12 62 C8.04 62 4.08 62 0 62 C0 41.54 0 21.08 0 0 Z " fill="#152943" transform="translate(813,473)"/>
<path d="M0 0 C4.11312491 3.2852154 6.65220126 6.86609278 8.82421875 11.64453125 C8.82421875 13.29453125 8.82421875 14.94453125 8.82421875 16.64453125 C4.86421875 16.97453125 0.90421875 17.30453125 -3.17578125 17.64453125 C-4.0546875 15.91927083 -4.93359375 14.19401042 -5.8125 12.46875 C-7.65712336 10.0004431 -9.38815683 8.95542545 -12.17578125 7.64453125 C-17.90801553 6.84818831 -23.32896995 6.85304069 -28.67578125 9.14453125 C-33.79389696 14.26264696 -37.2666405 19.92039053 -37.48828125 27.26953125 C-37.4079789 33.38143255 -35.86704579 38.70030189 -31.6796875 43.28125 C-26.62659301 47.67908036 -22.32573384 47.92654865 -15.90625 47.8671875 C-11.59289439 47.51545464 -8.76457071 45.89286583 -5.42578125 43.26953125 C-3.75545034 41.25038257 -3.75545034 41.25038257 -2.17578125 36.64453125 C-8.11578125 36.64453125 -14.05578125 36.64453125 -20.17578125 36.64453125 C-20.17578125 33.34453125 -20.17578125 30.04453125 -20.17578125 26.64453125 C-10.27578125 26.64453125 -0.37578125 26.64453125 9.82421875 26.64453125 C9.82421875 36.94721552 9.75537396 44.81773057 2.63671875 52.58203125 C-5.42887922 59.6014638 -13.44941256 60.51452718 -23.84765625 60.08984375 C-32.04936729 59.45649333 -38.18278974 55.56356927 -43.70703125 49.609375 C-50.42337266 40.62448211 -50.9267263 30.45593126 -50.17578125 19.64453125 C-48.50397904 11.38718386 -43.42766782 5.10744172 -37.17578125 -0.35546875 C-25.52058533 -7.41188928 -11.63544493 -7.24865241 0 0 Z " fill="#162A44" transform="translate(592.17578125,476.35546875)"/>
<path d="M0 0 C3.6640625 0.41015625 3.6640625 0.41015625 6.375 0.9375 C5.09618287 3.60496682 3.7036091 6.04590021 2.01953125 8.4765625 C1.33733521 9.46402466 1.33733521 9.46402466 0.64135742 10.47143555 C-0.078302 11.50651245 -0.078302 11.50651245 -0.8125 12.5625 C-1.30065186 13.2738208 -1.78880371 13.9851416 -2.29174805 14.71801758 C-4.46369529 17.87412283 -6.65942293 20.9828445 -8.9765625 24.03515625 C-9.62367188 24.88980469 -10.27078125 25.74445313 -10.9375 26.625 C-11.79794922 27.71361328 -11.79794922 27.71361328 -12.67578125 28.82421875 C-13.9039131 30.93464838 -13.9039131 30.93464838 -12.91088867 33.2355957 C-11.5169989 36.1644315 -9.88571373 38.6423777 -8 41.28125 C-7.29359375 42.28027344 -6.5871875 43.27929688 -5.859375 44.30859375 C-5.12203125 45.34113281 -4.3846875 46.37367188 -3.625 47.4375 C-2.16197759 49.48624292 -0.70346282 51.53821407 0.75 53.59375 C1.39710938 54.49931641 2.04421875 55.40488281 2.7109375 56.33789062 C4.29857752 58.81811229 5.38720091 61.17116365 6.375 63.9375 C1.40389228 64.96896904 -2.6984403 65.30201394 -7.625 63.9375 C-11.71690154 60.07952979 -14.08653753 54.81384657 -16.58300781 49.85009766 C-17.97580023 47.29359911 -19.71644456 45.12672536 -21.625 42.9375 C-22.30046875 43.95070313 -22.9759375 44.96390625 -23.671875 46.0078125 C-24.57291667 47.359375 -25.47395833 48.7109375 -26.375 50.0625 C-26.8184375 50.72765625 -27.261875 51.3928125 -27.71875 52.078125 C-28.60164912 53.40247369 -29.49128252 54.72235835 -30.38769531 56.03759766 C-31.51369118 57.76658341 -32.50033615 59.58431886 -33.46875 61.40625 C-35.625 63.9375 -35.625 63.9375 -39.296875 64.5234375 C-40.6574902 64.48380793 -42.01749197 64.41258093 -43.375 64.3125 C-44.07238281 64.28542969 -44.76976562 64.25835938 -45.48828125 64.23046875 C-47.20185705 64.16004783 -48.91383302 64.05242913 -50.625 63.9375 C-45.74400503 56.18892049 -40.72603392 48.54267785 -35.625 40.9375 C-34.4577615 39.18788136 -33.29103345 37.43792198 -32.125 35.6875 C-31.29166667 34.4375 -30.45833333 33.1875 -29.625 31.9375 C-33.1156619 25.51396239 -37.21981938 19.57140959 -41.375 13.5625 C-42.74687477 11.57695851 -44.11678349 9.59005662 -45.484375 7.6015625 C-46.08733398 6.72967285 -46.69029297 5.8577832 -47.31152344 4.95947266 C-48.625 2.9375 -48.625 2.9375 -48.625 1.9375 C-43.79985505 1.26658799 -39.42731082 1.0121893 -34.625 1.9375 C-30.97356306 5.06006934 -28.90323496 8.7488415 -26.625 12.9375 C-25.63282941 14.50498326 -24.63394551 16.06826136 -23.625 17.625 C-22.635 19.2646875 -22.635 19.2646875 -21.625 20.9375 C-19.23735302 18.15551314 -17.2631723 15.38958645 -15.5390625 12.16796875 C-8.7446622 -0.08850873 -8.7446622 -0.08850873 0 0 Z " fill="#162942" transform="translate(947.625,471.0625)"/>
<path d="M0 0 C5.33048708 2.93334496 8.96685442 7.77556326 10.875 13.5 C11.73654512 22.27545249 11.01904236 29.18559456 5.875 36.5 C1.7023142 40.6726858 -2.09920686 42.30074166 -7.9375 42.875 C-13.58596827 42.6835265 -18.03676375 40.71054076 -21.92578125 36.59375 C-27.62450024 29.30374193 -27.8808076 22.64636734 -27.125 13.5 C-25.58496498 7.42814218 -22.03757154 4.15818379 -17.02734375 0.62890625 C-11.63326525 -2.57209721 -5.62120425 -2.44916193 0 0 Z " fill="#F7F7F6" transform="translate(723.125,483.5)"/>
<path d="M0 0 C15.84 0 31.68 0 48 0 C48 3.63 48 7.26 48 11 C42.39 11 36.78 11 31 11 C31 28.16 31 45.32 31 63 C26.71 63 22.42 63 18 63 C18 45.84 18 28.68 18 11 C12.06 11 6.12 11 0 11 C0 7.37 0 3.74 0 0 Z " fill="#1D3048" transform="translate(632,473)"/>
<path d="M0 0 C18.6875 0 18.6875 0 24.0703125 4.875 C29.81540879 11.20158377 30.40890236 15.99444433 30.34765625 24.47265625 C29.72324412 30.8079838 26.91235534 34.22424147 22.375 38.4375 C15.07841261 43.23788644 10.47526387 41 0 41 C0 27.47 0 13.94 0 0 Z " fill="#F4F4F3" transform="translate(468,483)"/>
<path d="M0 0 C3.96 0 7.92 0 12 0 C12 20.46 12 40.92 12 62 C8.04 62 4.08 62 0 62 C0 41.54 0 21.08 0 0 Z " fill="#122640" transform="translate(612,473)"/>
<path d="M0 0 C3.63 0 7.26 0 11 0 C11 20.46 11 40.92 11 62 C7.37 62 3.74 62 0 62 C0 41.54 0 21.08 0 0 Z " fill="#14273F" transform="translate(879,473)"/>
<path d="M0 0 C3.63 0 7.26 0 11 0 C11 20.46 11 40.92 11 62 C7.37 62 3.74 62 0 62 C0 41.54 0 21.08 0 0 Z " fill="#142740" transform="translate(521,473)"/>
<path d="M0 0 C2.51625 -0.103125 5.0325 -0.20625 7.625 -0.3125 C8.79603271 -0.38078003 8.79603271 -0.38078003 9.99072266 -0.45043945 C13.88383377 -0.52703659 16.35525956 -0.15648962 19.48046875 2.26953125 C22.80721546 5.87479629 22.80721546 5.87479629 22.6875 9 C22.42849744 12.3417647 21.91334087 13.11313831 19.75 15.9375 C13.86116053 20.3541296 7.10024916 19.07100249 0 19 C0 12.73 0 6.46 0 0 Z " fill="#F9F9F8" transform="translate(768,484)"/>
<path d="M0 0 C4.95 0 9.9 0 15 0 C15.09765625 10.83984375 15.09765625 10.83984375 15 14 C14 15 14 15 10.83984375 15.09765625 C7.2265625 15.06510417 3.61328125 15.03255208 0 15 C0 10.05 0 5.1 0 0 Z " fill="#F8F9F6" transform="translate(338,390)"/>
<path d="M0 0 C3.91353807 1.19802186 5.11353541 2.35140515 7.0625 5.9375 C7.0625 9.7512751 6.91235071 11.96174548 4.375 14.875 C1.32647123 16.27567538 -0.61676952 16.4217732 -3.9375 15.9375 C-6.59109262 14.00109458 -7.6984947 12.55891377 -8.875 9.5 C-8.95747067 6.11870249 -7.9573841 4.60663256 -5.9375 1.9375 C-2.9375 -0.0625 -2.9375 -0.0625 0 0 Z " fill="#EFF4F6" transform="translate(248.9375,548.0625)"/>
<path d="M0 0 C2.4375 2.1875 2.4375 2.1875 4 5 C4 8.63075827 3.41176127 10.42048414 1.3125 13.375 C-1.73171415 15.51417751 -3.35097722 15.60817046 -7 15 C-9.93507943 12.93751175 -10.84435488 11.45720755 -12 8.0625 C-12 4.08077829 -10.76634634 2.76634634 -8 0 C-4.99733781 -1.5013311 -3.18669322 -0.8922741 0 0 Z " fill="#F1F5F7" transform="translate(252,440)"/>
<path d="M0 0 C3.72206393 1.34627844 5.01947413 2.61005343 6.9375 6.0625 C7.01854732 10.03381876 6.4063579 11.54005834 3.75 14.5 C0.9375 16.0625 0.9375 16.0625 -2.1875 16 C-6.61440311 14.55644464 -6.61440311 14.55644464 -8.0625 12.0625 C-8.45552445 8.96743248 -8.69158496 7.01801234 -8.0625 4.0625 C-5.4424551 0.90303409 -4.11187634 0.08391584 0 0 Z " fill="#EFF5F6" transform="translate(291.0625,493.9375)"/>
<path d="M0 0 C1.32 0 2.64 0 4 0 C4 3.63 4 7.26 4 11 C7.3 11 10.6 11 14 11 C14 13.97 14 16.94 14 20 C13.67 20 13.34 20 13 20 C13 17.36 13 14.72 13 12 C10.03 12 7.06 12 4 12 C3.34 14.97 2.68 17.94 2 21 C1.67 21 1.34 21 1 21 C1 16.38 1 11.76 1 7 C-3.95 7 -8.9 7 -14 7 C-14 11.62 -14 16.24 -14 21 C-14.66 21 -15.32 21 -16 21 C-16.05384521 18.70858714 -16.09272087 16.41681812 -16.125 14.125 C-16.14820313 12.84882813 -16.17140625 11.57265625 -16.1953125 10.2578125 C-16 7 -16 7 -14 5 C-11.41935871 4.85502015 -8.95056116 4.81322455 -6.375 4.875 C-5.66859375 4.88402344 -4.9621875 4.89304687 -4.234375 4.90234375 C-2.48943902 4.92592397 -0.74467705 4.96179539 1 5 C1.33 3.68 1.66 2.36 2 1 C1.34 0.67 0.68 0.34 0 0 Z " fill="#126DE5" transform="translate(352,383)"/>
<path d="M0 0 C0.33 0.99 0.66 1.98 1 3 C2.65 3 4.3 3 6 3 C9.28571429 11.42857143 9.28571429 11.42857143 10 16 C9.34 16 8.68 16 8 16 C7.34 14.02 6.68 12.04 6 10 C5.01 10 4.02 10 3 10 C2.71125 10.639375 2.4225 11.27875 2.125 11.9375 C1 14 1 14 -1 15 C-7.47058824 15.35294118 -7.47058824 15.35294118 -11 13 C-11.56737589 5.85106383 -11.56737589 5.85106383 -9 2 C-7.0546875 1.70703125 -7.0546875 1.70703125 -4.875 1.8125 C-3.59625 1.874375 -2.3175 1.93625 -1 2 C-1 2.33 -1 2.66 -1 3 C-3.31 3.33 -5.62 3.66 -8 4 C-8.33 6.97 -8.66 9.94 -9 13 C-6.03 13 -3.06 13 0 13 C0 8.71 0 4.42 0 0 Z " fill="#0357E3" transform="translate(394,435)"/>
<path d="M0 0 C9.57 0 19.14 0 29 0 C29 0.66 29 1.32 29 2 C20.09 2 11.18 2 2 2 C2 4.31 2 6.62 2 9 C7.28 9 12.56 9 18 9 C18 9.33 18 9.66 18 10 C12.06 10 6.12 10 0 10 C0 6.7 0 3.4 0 0 Z " fill="#040C20" transform="translate(572,503)"/>
<path d="M0 0 C2.97 0 5.94 0 9 0 C9 2.97 9 5.94 9 9 C6.03 9 3.06 9 0 9 C0 6.03 0 3.06 0 0 Z " fill="#F9FBF7" transform="translate(385,439)"/>
<path d="M0 0 C4.84146109 1.46710942 8.55948972 4.3512744 12 8 C12 8.66 12 9.32 12 10 C12.556875 10.185625 13.11375 10.37125 13.6875 10.5625 C17.06754192 12.66360714 18.85140381 15.70665994 21 19 C20.67 19.66 20.34 20.32 20 21 C18.49405319 19.38050958 16.99539332 17.75424026 15.5 16.125 C14.6646875 15.22007812 13.829375 14.31515625 12.96875 13.3828125 C11 11 11 11 11 9 C10.12601562 8.59974609 10.12601562 8.59974609 9.234375 8.19140625 C6.95523863 6.97613248 5.19537168 5.62930828 3.25 3.9375 C2.63640625 3.41027344 2.0228125 2.88304687 1.390625 2.33984375 C0.93171875 1.89769531 0.4728125 1.45554687 0 1 C0 0.67 0 0.34 0 0 Z " fill="#155CE1" transform="translate(316,418)"/>
<path d="M0 0 C0.33 0 0.66 0 1 0 C1 2.64 1 5.28 1 8 C4.96 8 8.92 8 13 8 C13.33 6.68 13.66 5.36 14 4 C14.33 4 14.66 4 15 4 C15.042721 5.66611905 15.04063832 7.33382885 15 9 C14 10 14 10 10.83984375 10.09765625 C8.90818359 10.08025391 8.90818359 10.08025391 6.9375 10.0625 C5.64714844 10.05347656 4.35679687 10.04445313 3.02734375 10.03515625 C2.02832031 10.02355469 1.02929688 10.01195312 0 10 C0 6.7 0 3.4 0 0 Z " fill="#E7F3F8" transform="translate(338,395)"/>
<path d="M0 0 C0.33 0 0.66 0 1 0 C1.02694851 1.95825873 1.04637218 3.91662226 1.0625 5.875 C1.07410156 6.96554687 1.08570313 8.05609375 1.09765625 9.1796875 C1 12 1 12 0 14 C-0.2322646 16.71262116 -0.41936235 19.40773126 -0.5625 22.125 C-0.60568359 22.87910156 -0.64886719 23.63320313 -0.69335938 24.41015625 C-0.7994832 26.27321888 -0.90025001 28.13658524 -1 30 C-1.33 30 -1.66 30 -2 30 C-2.02895976 26.87501937 -2.04678483 23.7500731 -2.0625 20.625 C-2.07087891 19.73554688 -2.07925781 18.84609375 -2.08789062 17.9296875 C-2.09111328 17.07890625 -2.09433594 16.228125 -2.09765625 15.3515625 C-2.10289307 14.56604004 -2.10812988 13.78051758 -2.11352539 12.97119141 C-2 11 -2 11 -1 9 C-0.77532169 7.46331135 -0.59203195 5.92031946 -0.4375 4.375 C-0.35371094 3.55773437 -0.26992188 2.74046875 -0.18359375 1.8984375 C-0.12300781 1.27195312 -0.06242187 0.64546875 0 0 Z " fill="#0E75E5" transform="translate(410,488)"/>
<path d="M0 0 C0.33 0 0.66 0 1 0 C1.1875 3.3125 1.1875 3.3125 1 7 C0.0319428 8.03095357 -0.97184814 9.02896769 -2 10 C-3.12551673 12.0010248 -3.12551673 12.0010248 -4.0625 14.125 C-5.77935943 17.88967972 -5.77935943 17.88967972 -8 19 C-6.60121198 14.53202662 -4.86369228 10.36177921 -2.875 6.125 C-2.33617187 4.97257813 -1.79734375 3.82015625 -1.2421875 2.6328125 C-0.62730469 1.32957031 -0.62730469 1.32957031 0 0 Z " fill="#EAF4F7" transform="translate(399,564)"/>
<path d="M0 0 C0.99 3.96 1.98 7.92 3 12 C2.34 12 1.68 12 1 12 C0.34 10.02 -0.32 8.04 -1 6 C-1.99 6 -2.98 6 -4 6 C-4 4.35 -4 2.7 -4 1 C-2 0 -2 0 0 0 Z " fill="#0A5FE1" transform="translate(401,439)"/>
<path d="M0 0 C7.24531618 -0.47166615 12.06182175 -0.38908827 18 4 C18.33 4.66 18.66 5.32 19 6 C16.69 5.34 14.38 4.68 12 4 C12 3.34 12 2.68 12 2 C8.04 1.67 4.08 1.34 0 1 C0 0.67 0 0.34 0 0 Z " fill="#0549DF" transform="translate(243,535)"/>
<path d="M0 0 C0.99 0.33 1.98 0.66 3 1 C1.125 6.875 1.125 6.875 0 8 C-2.18639453 8.07258946 -4.37500389 8.08373783 -6.5625 8.0625 C-8.35880859 8.04896484 -8.35880859 8.04896484 -10.19140625 8.03515625 C-11.11824219 8.02355469 -12.04507812 8.01195312 -13 8 C-13 7.67 -13 7.34 -13 7 C-7.06 6.505 -7.06 6.505 -1 6 C-0.67 4.02 -0.34 2.04 0 0 Z " fill="#044CE0" transform="translate(334,369)"/>
<path d="M0 0 C0.66 0 1.32 0 2 0 C1.67506385 3.5742977 1.36129314 5.55712453 -0.9375 8.375 C-3 10 -3 10 -5 10 C-5 9.34 -5 8.68 -5 8 C-4.34 8 -3.68 8 -3 8 C-2.67 6.68 -2.34 5.36 -2 4 C-1.34 4 -0.68 4 0 4 C0 2.68 0 1.36 0 0 Z " fill="#DAEDF7" transform="translate(254,445)"/>
<path d="M0 0 C3 3.75 3 3.75 3 6 C0.03 6 -2.94 6 -6 6 C-5.67 5.01 -5.34 4.02 -5 3 C-3.35 3 -1.7 3 0 3 C0 2.01 0 1.02 0 0 Z " fill="#DCECF3" transform="translate(377,418)"/>
<path d="M0 0 C0.66 0.33 1.32 0.66 2 1 C1.01 2.98 0.02 4.96 -1 7 C-1.66 7 -2.32 7 -3 7 C-3.33 8.32 -3.66 9.64 -4 11 C-3.91291331 9.54054712 -3.80473093 8.08234132 -3.6875 6.625 C-3.62949219 5.81289063 -3.57148437 5.00078125 -3.51171875 4.1640625 C-3 2 -3 2 0 0 Z " fill="#122038" transform="translate(547,488)"/>
<path d="M0 0 C0.66 0 1.32 0 2 0 C1.64950425 3.24208567 1.43778819 4.61527704 -1.0625 6.8125 C-1.701875 7.204375 -2.34125 7.59625 -3 8 C-3.33 7.01 -3.66 6.02 -4 5 C-2.79716872 3.14107893 -1.56389308 1.56389308 0 0 Z " fill="#EEF5F5" transform="translate(349,534)"/>
<path d="M0 0 C-2.61941217 1.74627478 -4.03824877 2.38722388 -7 3 C-7 3.66 -7 4.32 -7 5 C-8.32 4.67 -9.64 4.34 -11 4 C-7.20307814 1.17438373 -4.81430721 -0.56638908 0 0 Z " fill="#121B30" transform="translate(707,473)"/>
<path d="M0 0 C0.66 0.33 1.32 0.66 2 1 C1.34 2.32 0.68 3.64 0 5 C-0.66 5 -1.32 5 -2 5 C-3.62514468 6.45833358 -3.62514468 6.45833358 -5 8 C-3.8141763 4.62496331 -2.72426311 2.35277269 0 0 Z " fill="#0E1A2E" transform="translate(693,479)"/>
<path d="M0 0 C0.66 0.66 1.32 1.32 2 2 C0.02 3.32 -1.96 4.64 -4 6 C-4.66 5.34 -5.32 4.68 -6 4 C-4.02 2.68 -2.04 1.36 0 0 Z " fill="#EAF4F7" transform="translate(346,631)"/>
</svg>
